<?xml version="1.0" encoding="UTF-8" standalone="no"?>
<!-- Created with Inkscape (http://www.inkscape.org/) -->

<svg
   width="64pt"
   height="64pt"
   viewBox="0 0 22.577778 22.577778"
   version="1.1"
   id="svg831"
   inkscape:version="1.1.1 (3bf5ae0d25, 2021-09-20)"
   sodipodi:docname="Export - Unblash - 64px.svg"
   inkscape:export-filename="C:\Users\User\Desktop\CARLOS PROJECT\3. MARET 1\EXPORT\FILEDLINE\6 - Archive.png"
   inkscape:export-xdpi="576"
   inkscape:export-ydpi="576"
   xmlns:inkscape="http://www.inkscape.org/namespaces/inkscape"
   xmlns:sodipodi="http://sodipodi.sourceforge.net/DTD/sodipodi-0.dtd"
   xmlns="http://www.w3.org/2000/svg"
   xmlns:svg="http://www.w3.org/2000/svg"
   xmlns:rdf="http://www.w3.org/1999/02/22-rdf-syntax-ns#"
   xmlns:cc="http://creativecommons.org/ns#"
   xmlns:dc="http://purl.org/dc/elements/1.1/">
  <defs
     id="defs825">
    <pattern
       id="EMFhbasepattern"
       patternUnits="userSpaceOnUse"
       width="6"
       height="6"
       x="0"
       y="0" />
    <pattern
       id="EMFhbasepattern-9"
       patternUnits="userSpaceOnUse"
       width="6"
       height="6"
       x="0"
       y="0" />
    <pattern
       id="EMFhbasepattern-0"
       patternUnits="userSpaceOnUse"
       width="6"
       height="6"
       x="0"
       y="0" />
    <pattern
       id="EMFhbasepattern-7"
       patternUnits="userSpaceOnUse"
       width="6"
       height="6"
       x="0"
       y="0" />
    <pattern
       id="EMFhbasepattern-2"
       patternUnits="userSpaceOnUse"
       width="6"
       height="6"
       x="0"
       y="0" />
    <pattern
       id="EMFhbasepattern-98"
       patternUnits="userSpaceOnUse"
       width="6"
       height="6"
       x="0"
       y="0" />
    <pattern
       id="EMFhbasepattern-6"
       patternUnits="userSpaceOnUse"
       width="6"
       height="6"
       x="0"
       y="0" />
    <pattern
       id="EMFhbasepattern-01"
       patternUnits="userSpaceOnUse"
       width="6"
       height="6"
       x="0"
       y="0" />
    <pattern
       id="EMFhbasepattern-07"
       patternUnits="userSpaceOnUse"
       width="6"
       height="6"
       x="0"
       y="0" />
    <pattern
       id="EMFhbasepattern-8"
       patternUnits="userSpaceOnUse"
       width="6"
       height="6"
       x="0"
       y="0" />
    <pattern
       id="EMFhbasepattern-4"
       patternUnits="userSpaceOnUse"
       width="6"
       height="6"
       x="0"
       y="0" />
    <pattern
       id="EMFhbasepattern-40"
       patternUnits="userSpaceOnUse"
       width="6"
       height="6"
       x="0"
       y="0" />
    <pattern
       id="EMFhbasepattern-08"
       patternUnits="userSpaceOnUse"
       width="6"
       height="6"
       x="0"
       y="0" />
    <pattern
       id="EMFhbasepattern-04"
       patternUnits="userSpaceOnUse"
       width="6"
       height="6"
       x="0"
       y="0" />
    <pattern
       id="EMFhbasepattern-014"
       patternUnits="userSpaceOnUse"
       width="6"
       height="6"
       x="0"
       y="0" />
    <pattern
       id="EMFhbasepattern-27"
       patternUnits="userSpaceOnUse"
       width="6"
       height="6"
       x="0"
       y="0" />
    <pattern
       id="EMFhbasepattern-09"
       patternUnits="userSpaceOnUse"
       width="6"
       height="6"
       x="0"
       y="0" />
    <pattern
       id="EMFhbasepattern-5"
       patternUnits="userSpaceOnUse"
       width="6"
       height="6"
       x="0"
       y="0" />
    <pattern
       id="EMFhbasepattern-018"
       patternUnits="userSpaceOnUse"
       width="6"
       height="6"
       x="0"
       y="0" />
  </defs>
  <sodipodi:namedview
     id="base"
     pagecolor="#ffffff"
     bordercolor="#666666"
     borderopacity="1.0"
     inkscape:pageopacity="0.0"
     inkscape:pageshadow="2"
     inkscape:zoom="9.1757812"
     inkscape:cx="42.612175"
     inkscape:cy="42.666667"
     inkscape:document-units="pt"
     inkscape:current-layer="layer1"
     showgrid="false"
     units="pt"
     inkscape:window-width="1920"
     inkscape:window-height="1001"
     inkscape:window-x="-9"
     inkscape:window-y="41"
     inkscape:window-maximized="1"
     inkscape:pagecheckerboard="true"
     inkscape:showpageshadow="false"
     inkscape:object-paths="true"
     inkscape:snap-intersection-paths="true"
     inkscape:snap-smooth-nodes="true"
     inkscape:snap-midpoints="true"
     showguides="true"
     inkscape:snap-bbox="true"
     inkscape:bbox-nodes="true"
     inkscape:snap-nodes="false"
     inkscape:snap-global="true">
    <inkscape:grid
       type="xygrid"
       id="grid1378" />
    <sodipodi:guide
       position="0.97013831,21.607643"
       orientation="78.000048,0"
       id="guide1380"
       inkscape:locked="false" />
    <sodipodi:guide
       position="0.97013831,0.97013129"
       orientation="0,78.000005"
       id="guide1382"
       inkscape:locked="false" />
    <sodipodi:guide
       position="21.607639,0.97013129"
       orientation="-78.000048,0"
       id="guide1384"
       inkscape:locked="false" />
    <sodipodi:guide
       position="21.607639,21.607643"
       orientation="0,-78.000005"
       id="guide1386"
       inkscape:locked="false" />
  </sodipodi:namedview>
  <metadata
     id="metadata828">
    <rdf:RDF>
      <cc:Work
         rdf:about="">
        <dc:format>image/svg+xml</dc:format>
        <dc:type
           rdf:resource="http://purl.org/dc/dcmitype/StillImage" />
      </cc:Work>
    </rdf:RDF>
  </metadata>
  <g
     inkscape:label="Icon"
     inkscape:groupmode="layer"
     id="layer1"
     transform="translate(0,-274.42223)">
    <g
       id="g21460"
       style="display:inline;stroke-width:0.794797"
       transform="matrix(1.2581835,0,0,1.2581835,77.392807,-77.317983)">
      <path
         style="color:#000000;fill:#cccccc;fill-opacity:1;stroke-width:0.794797;stroke-linecap:round;stroke-linejoin:round;-inkscape-stroke:none"
         d="m -55.185547,280.86133 c -0.435245,0 -0.792972,0.35772 -0.792969,0.79297 v 1.05859 a 0.26460996,0.26460996 0 0 0 0.263672,0.26367 h 6.351563 a 0.26460996,0.26460996 0 0 0 0.263672,-0.26367 v -1.05859 c 3e-6,-0.43525 -0.357724,-0.79297 -0.792969,-0.79297 z"
         id="path389026" />
      <path
         style="color:#000000;fill:#d9d9d9;fill-opacity:1;stroke-width:0.794797;stroke-linecap:round;stroke-linejoin:round;-inkscape-stroke:none"
         d="m -56.244141,281.91797 c -0.435245,0 -0.79297,0.35968 -0.792968,0.79492 v 2.64453 a 0.26460996,0.26460996 0 0 0 0.28125,0.26563 l 8.466797,-0.5293 a 0.26460996,0.26460996 0 0 0 0.248046,-0.26367 v -2.11719 c 3e-6,-0.43524 -0.357723,-0.79492 -0.792968,-0.79492 z"
         id="path388834" />
      <path
         style="color:#000000;fill:#e59f2e;stroke-width:0.794797;stroke-linecap:round;stroke-linejoin:round;-inkscape-stroke:none"
         d="m -57.830078,286.68164 a 0.26460996,0.26460996 0 0 0 -0.199219,0.0898 l -1.853515,2.11719 a 0.26460996,0.26460996 0 0 0 -0.06445,0.17383 v 1.78711 a 0.26460996,0.26460996 0 0 0 0.265625,0.26562 l 14.28711,-0.0273 a 0.26460996,0.26460996 0 0 0 0.263672,-0.26367 v -1.76172 a 0.26460996,0.26460996 0 0 0 -0.06445,-0.17383 l -1.853516,-2.11719 a 0.26460996,0.26460996 0 0 0 -0.199219,-0.0898 z"
         id="path388510" />
      <path
         id="path711144"
         style="fill:#ca7d02;fill-opacity:1;stroke-width:3.00396;stroke-linecap:round;stroke-linejoin:round"
         d="m -218.57031,25.001953 a 1.0001006,1.0001006 0 0 0 -0.75391,0.339844 l -2.08008,2.376953 V 41.75 l 45.66407,-0.08789 V 27.720703 l -2.08204,-2.378906 a 1.0001006,1.0001006 0 0 0 -0.7539,-0.339844 z"
         transform="matrix(0.26458334,0,0,0.26458334,0,280.06666)" />
      <path
         style="color:#000000;fill:#ececec;stroke-width:0.794797;stroke-linecap:round;stroke-linejoin:round;-inkscape-stroke:none"
         d="m -57.300781,282.97656 c -0.435245,0 -0.794925,0.35968 -0.794922,0.79492 v 7.40821 a 0.26460996,0.26460996 0 0 0 0.265625,0.26367 h 10.582031 a 0.26460996,0.26460996 0 0 0 0.265625,-0.26367 v -4.91016 c 3e-6,-0.30955 -0.123245,-0.60695 -0.341797,-0.82617 l -2.117187,-2.12305 c -0.218712,-0.21944 -0.516455,-0.34375 -0.826172,-0.34375 z"
         id="path37911" />
      <path
         style="color:#000000;fill:#fcba4c;stroke-width:0.794797;stroke-linecap:round;stroke-linejoin:round;-inkscape-stroke:none"
         d="m -59.417969,288.79883 c -0.72749,0 -1.322265,0.59477 -1.322265,1.32226 v 4.76172 c 0,0.72749 0.594775,1.32422 1.322265,1.32422 h 13.757813 c 0.72749,0 1.322265,-0.59673 1.322265,-1.32422 v -4.76172 c 0,-0.72749 -0.594775,-1.32226 -1.322265,-1.32226 h -3.173828 c -1.11809,0 -0.754335,1.58594 -1.587891,1.58594 h -4.234375 c -0.747016,0 -0.532084,-1.55954 -1.587892,-1.58594 z"
         id="path388318"
         sodipodi:nodetypes="ssssssssccccs" />
      <path
         style="color:#000000;fill:#e59f2e;stroke-width:0.794797;stroke-linecap:round;stroke-linejoin:round;-inkscape-stroke:none"
         d="m -56.771484,292.50195 c -0.435244,0 -0.794922,0.35773 -0.794922,0.79297 v 0.26563 c 0,0.43524 0.359678,0.79297 0.794922,0.79297 h 8.464843 c 0.435244,0 0.794922,-0.35773 0.794922,-0.79297 v -0.26563 c 0,-0.43524 -0.359678,-0.79297 -0.794922,-0.79297 z"
         id="path388126" />
      <path
         id="path38103"
         style="color:#000000;fill:#bfbfbf;fill-opacity:1;stroke-width:3.00396;stroke-linecap:round;stroke-linejoin:round;-inkscape-stroke:none"
         d="m -189.57422,11.017578 v 10.980469 a 1.0001006,1.0001006 0 0 0 1.00391,1.003906 h 10.97656 c -0.10158,-1.008083 -0.54815,-1.956101 -1.26953,-2.679687 l -8.00195,-8.025391 c -0.72884,-0.731266 -1.68945,-1.182647 -2.70899,-1.279297 z"
         transform="matrix(0.26458334,0,0,0.26458334,0,280.06666)" />
      <path
         id="path8208"
         style="color:#000000;fill:#e59f2e;stroke-width:3.00396;stroke-linecap:round;stroke-linejoin:round;-inkscape-stroke:none"
         d="M -212.57617,46.003906 A 1.0000006,1.0000006 0 0 0 -213.57227,47 v 1.003906 a 1.0000006,1.0000006 0 0 0 0.9961,0.996094 1.0000006,1.0000006 0 0 0 1.0039,-0.996094 V 47 a 1.0000006,1.0000006 0 0 0 -1.0039,-0.996094 z m 28.00586,0 A 1.0000006,1.0000006 0 0 0 -185.57422,47 v 1.003906 A 1.0000006,1.0000006 0 0 0 -184.57031,49 a 1.0000006,1.0000006 0 0 0 0.99804,-0.996094 V 47 a 1.0000006,1.0000006 0 0 0 -0.99804,-0.996094 z m -28.00586,5.994141 a 1.0000006,1.0000006 0 0 0 -0.9961,1.003906 v 0.996094 a 1.0000006,1.0000006 0 0 0 0.9961,1.003906 1.0000006,1.0000006 0 0 0 1.0039,-1.003906 v -0.996094 a 1.0000006,1.0000006 0 0 0 -1.0039,-1.003906 z m 28.00586,0 a 1.0000006,1.0000006 0 0 0 -1.00391,1.003906 v 0.996094 a 1.0000006,1.0000006 0 0 0 1.00391,1.003906 1.0000006,1.0000006 0 0 0 0.99804,-1.003906 v -0.996094 a 1.0000006,1.0000006 0 0 0 -0.99804,-1.003906 z"
         transform="matrix(0.26458334,0,0,0.26458334,0,280.06666)" />
      <path
         id="rect7690-2-6"
         style="color:#000000;display:inline;fill:#000000;stroke-width:0.794797;stroke-linecap:round;stroke-linejoin:round;-inkscape-stroke:none"
         d="m -55.18578,280.86144 c -0.435245,0 -0.79272,0.35747 -0.792718,0.79272 v 0.26407 h -0.265615 c -0.435245,0 -0.793237,0.35954 -0.793234,0.79478 v 0.26355 h -0.263549 c -0.435245,0 -0.794787,0.35954 -0.794785,0.79478 v 3.07578 l -1.78077,2.03451 c -0.502986,0.18744 -0.864028,0.67332 -0.864028,1.23971 v 4.76147 c 0,0.72749 0.59491,1.32447 1.322398,1.32447 h 13.757817 c 0.727491,0 1.322401,-0.59698 1.322401,-1.32447 v -4.76147 c 0,-0.56639 -0.360526,-1.05227 -0.863512,-1.23971 l -1.781289,-2.03451 v -0.57774 c 2e-6,-0.30955 -0.123026,-0.60657 -0.34158,-0.82579 l -0.716754,-0.71882 v -2.01176 c 6e-6,-0.43524 -0.357986,-0.79478 -0.793231,-0.79478 h -0.265618 v -0.26407 c 3e-6,-0.43525 -0.357471,-0.79272 -0.792715,-0.79272 z m 0,0.5271 h 5.293218 c 0.149256,0 0.263551,0.11636 0.263548,0.26562 v 0.26407 h -5.820317 v -0.26407 c 0,-0.14926 0.114292,-0.26562 0.263551,-0.26562 z m -1.058333,1.05885 h 7.409884 c 0.149257,0 0.264067,0.11636 0.264065,0.26562 v 1.48105 l -0.871263,-0.87385 c -0.218694,-0.21936 -0.516556,-0.34365 -0.826307,-0.34365 h -6.239931 v -0.26355 c 0,-0.14926 0.114293,-0.26562 0.263552,-0.26562 z m 6.241995,7.62073 c -0.05393,0.18874 -0.223322,0.31677 -0.419611,0.31677 h -4.234368 c -0.22552,0 -0.363278,-0.16311 -0.420129,-0.31677 l -0.248047,-0.59945 c -0.127633,-0.39743 -0.500113,-0.66973 -0.91984,-0.66973 h -1.322401 c 5.29e-4,-1.67722 0,-3.34991 0,-5.0276 0,-0.14926 0.116359,-0.26561 0.265618,-0.26561 h 7.142716 v 2.38125 c -5.29e-4,0.14692 0.118689,0.26617 0.265618,0.26561 h 2.369365 l 0.01138,2.64635 h -1.322399 c -0.419727,0 -0.792207,0.2723 -0.919842,0.66973 z m 0.373104,-6.18671 1.734778,1.7415 h -1.734778 z m -7.142715,0.41962 c -0.146127,-5.9e-4 -0.265049,0.11742 -0.265618,0.26355 -5.29e-4,0.14693 0.118684,0.26619 0.265618,0.26561 h 3.173965 c 0.146934,5.9e-4 0.266192,-0.11868 0.265618,-0.26561 -5.29e-4,-0.14613 -0.119491,-0.26413 -0.265618,-0.26355 z m 4.232815,0 c -0.145521,2.9e-4 -0.263496,0.11803 -0.264065,0.26355 -5.29e-4,0.14632 0.117737,0.26533 0.264065,0.26561 h 1.5875 c 0.146327,-2.9e-4 0.264639,-0.11929 0.264067,-0.26561 -5.29e-4,-0.14552 -0.118547,-0.26327 -0.264067,-0.26355 z m -4.232815,1.05626 c -0.146934,-5.8e-4 -0.266192,0.11869 -0.265618,0.26562 2.64e-4,0.14633 0.11929,0.26464 0.265618,0.26407 h 1.585949 c 0.146325,5.8e-4 0.26533,-0.11774 0.265616,-0.26407 5.29e-4,-0.14693 -0.118682,-0.26619 -0.265616,-0.26562 z m 2.644799,0 c -0.146124,5.9e-4 -0.264121,0.11949 -0.263549,0.26562 2.64e-4,0.14552 0.118028,0.2635 0.263549,0.26407 h 3.175516 c 0.145722,-2.9e-4 0.263784,-0.11835 0.264067,-0.26407 5.29e-4,-0.14633 -0.11774,-0.26533 -0.264067,-0.26562 z m -2.644799,1.32447 c -0.146127,-5.8e-4 -0.265049,0.11742 -0.265618,0.26355 -5.29e-4,0.14693 0.118684,0.26619 0.265618,0.26562 h 4.232815 c 0.146126,-5.9e-4 0.264123,-0.11949 0.263551,-0.26562 -5.29e-4,-0.14532 -0.118232,-0.26298 -0.263551,-0.26355 z m 5.291148,0 c -0.146124,-5.8e-4 -0.265046,0.11742 -0.265615,0.26355 -5.29e-4,0.14693 0.118681,0.26619 0.265615,0.26562 h 2.910417 c 0.146126,-5.9e-4 0.264123,-0.11949 0.263551,-0.26562 -5.29e-4,-0.14532 -0.118232,-0.26298 -0.263551,-0.26355 z m -6.6151,0.9679 v 1.14928 h -1.006139 z m 11.113017,0 1.006141,1.14928 h -1.006141 z m -9.789065,0.0904 c -0.146328,-5.8e-4 -0.265332,0.11774 -0.265618,0.26407 -5.29e-4,0.14693 0.118684,0.26619 0.265618,0.26562 h 2.115632 c 0.146934,5.8e-4 0.266192,-0.11869 0.265618,-0.26562 -2.65e-4,-0.14633 -0.11929,-0.26464 -0.265618,-0.26407 z m 3.173965,0 c -0.145521,5.9e-4 -0.263265,0.11855 -0.263549,0.26407 -5.29e-4,0.14613 0.117425,0.26505 0.263549,0.26562 h 3.176035 c 0.146124,-5.9e-4 0.26412,-0.11949 0.263549,-0.26562 -2.65e-4,-0.14552 -0.118028,-0.2635 -0.263549,-0.26407 z m 4.341855,1.90428 c 0.05393,-0.18874 0.225388,-0.31833 0.42168,-0.31833 h 3.173965 c 0.441508,0 0.794785,0.3538 0.794785,0.7953 v 4.76147 c 0,0.44151 -0.353277,0.79478 -0.794785,0.79478 h -13.757817 c -0.441505,0 -0.794782,-0.35327 -0.794782,-0.79478 v -4.76147 c 0,-0.4415 0.353277,-0.7953 0.794782,-0.7953 h 3.173968 c 0.196286,0 0.367752,0.12959 0.42168,0.31833 l 0.248047,0.59996 c 0.145081,0.38574 0.498562,0.66973 0.918289,0.66973 h 4.234368 c 0.419727,0 0.790231,-0.27229 0.917773,-0.66973 z m -6.988204,2.59416 c -0.14532,5.5e-4 -0.262985,0.11823 -0.263552,0.26355 h -0.264064 c -0.435245,0 -0.794785,0.35747 -0.794785,0.79271 v 0.26562 c 0,0.43524 0.35954,0.79323 0.794785,0.79323 h 0.264064 c -5.29e-4,0.14613 0.117425,0.26505 0.263552,0.26562 0.146934,5.8e-4 0.266189,-0.11868 0.265615,-0.26562 h 6.878651 c -5.29e-4,0.14694 0.118684,0.2662 0.265618,0.26562 0.146328,-2.9e-4 0.264636,-0.11929 0.264065,-0.26562 h 0.263551 c 0.435242,0 0.794782,-0.35799 0.794782,-0.79323 v -0.26562 c 0,-0.43524 -0.35954,-0.79271 -0.794782,-0.79271 h -0.263551 c -5.29e-4,-0.14552 -0.118544,-0.26327 -0.264065,-0.26355 -0.146127,-5.8e-4 -0.265049,0.11742 -0.265618,0.26355 h -6.878651 c -5.29e-4,-0.14613 -0.119491,-0.26412 -0.265615,-0.26355 z m -0.527616,0.79271 h 8.465116 c 0.14926,0 0.265615,0.11429 0.265615,0.26355 v 0.26562 c 0,0.14926 -0.116355,0.26407 -0.265615,0.26407 h -8.465116 c -0.149262,0 -0.265618,-0.11481 -0.265618,-0.26407 v -0.26562 c 0,-0.14926 0.116356,-0.26355 0.265618,-0.26355 z"
         sodipodi:nodetypes="sscsscscccssssssccscccscssssssccsssscccscsscssccsccccccccscccccccsccscccsccscccccccccccccccccsccscccsccscccccccccccccccccccccccccccssssssccccssccscsssscsccccssssccccssssssssss" />
    </g>
  </g>
</svg>
