<?xml version="1.0" ?><svg style="enable-background:new 0 0 256 256;" version="1.1" viewBox="0 0 256 256" xml:space="preserve" xmlns="http://www.w3.org/2000/svg" xmlns:xlink="http://www.w3.org/1999/xlink"><style type="text/css">
	.st0{fill:#00A388;}
	.st1{fill:#EA685E;stroke:#00886F;stroke-width:15;stroke-miterlimit:10;}
	.st2{fill:#E8E8E8;}
	.st3{fill:#FFFFFF;stroke:#00886F;stroke-width:15;stroke-miterlimit:10;}
	.st4{fill:#00886F;}
	.st5{fill:#FFFFFF;}
	.st6{fill:#CCCCCC;}
	.st7{fill:none;stroke:#00A388;stroke-width:4;stroke-miterlimit:10;}
	.st8{fill:#EA685E;}
	.st9{fill:#FFAB80;}
	.st10{fill:#2C3E50;}
	.st11{fill:#4B687F;}
	.st12{fill:none;stroke:#3E5063;stroke-width:4;stroke-miterlimit:10;}
	.st13{fill:#FFD766;}
	.st14{fill:#FFE6D3;}
	.st15{fill:#F09A79;}
	.st16{fill:#C91E01;}
	.st17{fill:#EA3B28;}
	.st18{fill:#0F627F;}
	.st19{fill:#005670;}
	.st20{filter:url(#Adobe_OpacityMaskFilter);}
	.st21{mask:url(#SVGID_2_);}
	.st22{fill:#8C623B;}
	.st23{fill:#E6E6E6;stroke:#005670;stroke-width:16;stroke-miterlimit:10;}
	.st24{opacity:0.6;}
	.st25{fill:#E6E6E6;}
	.st26{fill:#FFEC82;}
	.st27{fill:#FFCF3A;}
	.st28{filter:url(#Adobe_OpacityMaskFilter_1_);}
	.st29{mask:url(#SVGID_1_);}
	.st30{fill:#603813;}
	.st31{fill:#F2F2F2;}
	.st32{fill:#666666;}
</style><g id="Layer_2"><circle class="st2" cx="128" cy="128" r="120"/></g><g id="Layer_1"><g><g><path class="st17" d="M166.439301,69.962158c-0.177261,2.315086-0.271149,3.462318-0.44841,5.777405     c-25.247345-2.826324-50.724068-2.826324-75.971336,0c-0.17733-2.315086-0.281593-3.462318-0.458855-5.777405     c-0.365036-4.536484,3.264114-8.572166,8.06118-8.885075c11.513-0.646431,17.884842-1.001091,28.115158-1.084599v-0.020878     c0.782135,0,1.522522,0.010437,2.262962,0.010437c0.730011,0,1.470383-0.010437,2.252518-0.010437v0.020878     c10.230316,0.083508,16.612595,0.438168,28.125595,1.084599C163.175186,61.389992,166.804337,65.425674,166.439301,69.962158z"/></g><g><path class="st5" d="M203.754379,136.253601c-5.610596-10.737595-11.242737-21.475189-16.853409-32.212784     c-1.42955-2.719368-2.848267-5.427979-4.267059-8.147079l-11.941483-1.150146     c-1.472519,2.826691-2.955795,5.653648-4.428314,8.480339c-6.975662,13.338875-13.962097,26.666725-20.937775,40.016106     c2.558121-0.98877,5.513916-1.848694,8.781387-2.547226c4.535843-8.609436,9.039413-17.240402,13.553726-25.882126     c1.966904-3.761925,3.923111-7.534607,5.900833-11.296532c0.53743-1.031799,1.074844-2.063599,1.612259-3.0849     c0.290161-0.547913,0.65564-1.074837,1.236023-1.999046c1.042618,1.934753,1.98848,3.632813,2.891312,5.309624     c0.225739,0.419334,0.451477,0.849159,0.677155,1.268494c6.21257,11.887482,12.435852,23.77523,18.605392,35.684486     c3.246033,0.698532,6.180313,1.547699,8.716965,2.525711C206.05455,140.757095,204.92598,138.500107,203.754379,136.253601z"/></g><g><path class="st17" d="M207.88179,144.583572c0.11821,0.47287,0.032211,1.064087-0.161255,1.924011     c-0.65564,2.998825-2.547363,5.191528-4.826004,7.007935c-7.179886,5.707443-15.585114,8.039749-24.54921,8.641724     c-6.126572,0.419067-12.04892-0.784607-17.810028-2.78392c-4.234863-1.483139-8.168793-3.503967-11.500748-6.545837     c-2.031464-1.869949-3.600739-4.019608-4.181137-6.825043c-0.11821-0.53743-0.107452-1.031799,0.032288-1.440384     c-0.010773,0-0.02153,0.010757-0.043045,0.010757c0.086014-0.386795,0.086014-0.6017,0.193466-0.773849     c0.096756-0.182632,0.193527-0.376297,0.290222-0.558929c2.558121-0.98877,5.513916-1.848694,8.781387-2.547226     c6.416809-1.397339,14.048111-2.203461,22.2276-2.203461c8.190308,0,15.821609,0.806122,22.2491,2.203461     c3.246033,0.698532,6.180313,1.547699,8.716965,2.525711c0.225677,0.451599,0.462173,0.913712,0.698608,1.375809     C207.967789,144.59433,207.914001,144.583572,207.88179,144.583572z"/></g><g><path class="st5" d="M52.245613,136.253601c5.610611-10.737595,11.242737-21.475189,16.853416-32.212784     c1.42955-2.719368,2.848274-5.427979,4.267059-8.147079l11.941475-1.150146     c1.472519,2.826691,2.955795,5.653648,4.428314,8.480339c6.975677,13.338875,13.962105,26.666725,20.937782,40.016106     c-2.558121-0.98877-5.513916-1.848694-8.781395-2.547226c-4.535835-8.609436-9.039398-17.240402-13.553719-25.882126     c-1.966904-3.761925-3.923111-7.534607-5.900841-11.296532c-0.537415-1.031799-1.074837-2.063599-1.612251-3.0849     c-0.290161-0.547913-0.655632-1.074837-1.236023-1.999046c-1.042625,1.934753-1.988487,3.632813-2.891312,5.309624     c-0.225739,0.419334-0.451477,0.849159-0.677147,1.268494c-6.212585,11.887482-12.43586,23.77523-18.605404,35.684486     c-3.246025,0.698532-6.180305,1.547699-8.716965,2.525711C49.94545,140.757095,51.074013,138.500107,52.245613,136.253601z"/></g><g><path class="st17" d="M48.118217,144.583572c-0.118217,0.47287-0.032211,1.064087,0.161251,1.924011     c0.655632,2.998825,2.547356,5.191528,4.826,7.007935c7.179893,5.707443,15.585114,8.039749,24.54921,8.641724     c6.126572,0.419067,12.048927-0.784607,17.810028-2.78392c4.234856-1.483139,8.168793-3.503967,11.500755-6.545837     c2.031456-1.869949,3.600739-4.019608,4.181122-6.825043c0.118217-0.53743,0.10746-1.031799-0.032272-1.440384     c0.010757,0,0.021515,0.010757,0.043037,0.010757c-0.086006-0.386795-0.086006-0.6017-0.193466-0.773849     c-0.096764-0.182632-0.193527-0.376297-0.290222-0.558929c-2.558121-0.98877-5.513916-1.848694-8.781395-2.547226     c-6.416801-1.397339-14.048103-2.203461-22.227585-2.203461c-8.190308,0-15.821617,0.806122-22.249111,2.203461     c-3.246025,0.698532-6.180305,1.547699-8.716965,2.525711C48.472931,143.67012,48.236431,144.132233,48,144.59433     C48.032211,144.59433,48.086006,144.583572,48.118217,144.583572z"/></g><g><path class="st18" d="M194.856873,75.718689c-9.594208-1.230484-19.230103-2.221138-28.865982-2.982399     C153.36203,71.328346,140.680984,70.619286,128,70.619286s-25.36203,0.709061-37.990883,2.117004     c-9.635895,0.761261-19.271782,1.751915-28.865982,2.982399c-4.671997,0.59449-7.977802,4.640617-7.372932,8.926826     s4.817947,7.268608,9.354301,6.684555c2.680122-0.312653,5.360245-0.625557,8.040367-0.907143l3.827232-0.406601     l11.586067-1.115921l3.649963-0.323341h0.010376c3.086845-0.260712,6.184074-0.510986,9.291794-0.740379     c8.540916-0.469231,10.153816-0.771698,18.653038-0.917839v96.577965c-23.107597,0.673676-43.390846,3.638-55.786804,7.814987     c-2.627357,0.87558-1.953682,4.715729,0.741077,4.715729h129.752777c2.694763,0.067215,3.301086-3.77269,0.741074-4.648514     c-12.395889-4.176987-32.693207-7.141052-55.800751-7.814728V86.918846c8.499161,0.146141,10.098053,0.448608,18.638977,0.917839     c3.107727,0.229393,6.204941,0.479668,9.291794,0.740379h0.010376l3.649963,0.323341l11.586075,1.115921l3.827225,0.406601     c2.680115,0.281586,5.360245,0.59449,8.040359,0.907143c4.536362,0.584053,8.749435-2.398346,9.354309-6.684555     S199.528854,76.313179,194.856873,75.718689z"/></g><g><circle class="st5" cx="128" cy="80.570625" r="12.380953"/><path class="st18" d="M128,95.80835c-8.402161,0-15.238098-6.835938-15.238098-15.238091S119.597839,65.332161,128,65.332161     s15.238098,6.835938,15.238098,15.238098S136.402161,95.80835,128,95.80835z M128,71.046448     c-5.251579,0-9.523811,4.27269-9.523811,9.523811c0,5.251114,4.272232,9.523804,9.523811,9.523804     c5.251587,0,9.523804-4.27269,9.523804-9.523804C137.523804,75.319138,133.251587,71.046448,128,71.046448z"/></g></g></g></svg>